<svg width="32.000000" height="32.000000" viewBox="0 0 32 32" fill="none" xmlns="http://www.w3.org/2000/svg" xmlns:xlink="http://www.w3.org/1999/xlink">
	<desc>
			Created with Pixso.
	</desc>
	<defs>
		<clipPath id="clip4_4">
			<rect id="favicon1" width="32.000000" height="32.000000" fill="white" fill-opacity="0"/>
		</clipPath>
	</defs>
	<g clip-path="url(#clip4_4)">
		<path id="path" d="M3.64 5.47C2.29 6.52 1.61 9.56 2.38 12.5C3.3 15.98 5.84 19.34 5.84 19.34C5.84 19.34 13.91 27.6 15.75 27.6C17.59 27.6 22.2 22.77 25.03 19.34C27.99 14.74 31.77 7.77 28.81 5.47C26.09 3.39 20.23 6.26 17.67 8.13C15.83 9.5 15.75 9.5 13.83 8.13C11.27 6.26 6.36 3.39 3.64 5.47Z" fill="#41E853" fill-opacity="1.000000" fill-rule="nonzero"/>
		<path id="path" d="M15.75 27.6C17.59 27.6 22.2 22.77 25.03 19.34C27.99 14.74 31.77 7.77 28.81 5.47C26.09 3.39 20.23 6.26 17.67 8.13C15.83 9.5 15.75 9.5 13.83 8.13C11.27 6.26 6.36 3.39 3.64 5.47C2.29 6.52 1.61 9.56 2.38 12.5C3.3 15.98 5.84 19.34 5.84 19.34C5.84 19.34 13.91 27.6 15.75 27.6Z" stroke="#000000" stroke-opacity="0" stroke-width="0.133333"/>
	</g>
</svg>
